<svg xmlns="http://www.w3.org/2000/svg" width="999.999" height="1000" viewBox="0 0 999.99878 1000"><defs><clipPath id="a"><path d="M0 800h800V0H0v800z"/></clipPath><clipPath id="b"><path d="M0 800h800V0H0v800z"/></clipPath></defs><path d="M.003 929.025h999.996V0H.003v929.025z" fill="#fff"/><g clip-path="url(#a)" transform="matrix(1.25 0 0 -1.25 0 1000)"><path d="M331.335 133.113c-10.974 3.485-22.148 6.178-33.015 10.038-10.426 3.703-20.587 8.04-30.535 12.877-20.317 9.876-39.643 21.933-57.344 35.977-35.904 28.484-65.192 64.532-86.958 104.794-12.396 22.93-21.578 46.951-30.476 71.383-1.584 4.35-8.09 2.682-7.007-1.93 10.673-45.446 34.339-89.103 62.796-125.79 28.655-36.942 64.934-67.994 106.366-89.767 11.55-6.069 23.527-11.35 35.766-15.868 12.224-4.513 24.992-8.884 37.94-10.664 5.756-.79 8.337 7.086 2.467 8.95" fill="#95faff"/><path d="M696.977 391.371c6.859-94.879-43.753-189.98-127.585-237.065-98.358-55.245-228.575-28.828-322.83 22.84C52.485 283.53 39.512 613.247 284.608 662.421c18.18 3.648 36.71 5.58 55.245 6 47.02 1.067 91.738-7.899 137.318-17.85 43.817-9.568 90.104-16.73 127.549-43.28 60.172-42.664 87.21-146.123 92.257-215.92" fill="#95faff"/><path d="M161.456 621.427c-8.526-9.292-19.867-17.434-27.574-27.237-4.02-5.113-1.852-8.772-.023-15.328a203.717 203.717 0 0 1 6.689-19.948c1.799-4.57 4.556-9.71 9.42-10.376 1.364-.187 2.746.02 4.105.226l87.378 13.252c10.832 1.643 21.678 3.28 32.396 5.572 4.879 1.043 10.745 1.708 15.235 3.953 2.94 1.47 4.414 3.83 7.934 4.183-.846 14.41-3.056 29.33-6.731 43.3-2.602 9.892-11.272 12.869-20.611 15.776-12.776 5.694-26.195 9.55-39.066 14.97-11.897 5.012-23.446 10.39-34.211 17.594 2.685-1.796-31.186-41.845-34.941-45.937" fill="#ffc900"/><path d="M288.34 569.166a427.585 427.585 0 0 0-38.476-9.185c-9.718-1.849-19.497-3.359-29.273-4.87l-66.675-10.3c-1.413 28.483-14.651 55.114-18.435 83.381 22.875 4.367 45.726 8.854 68.577 13.341 22.387 4.397 45.71 11.227 68.398 13.131 4.927.393 21.17-83.973 15.884-85.498" fill="#00bac4"/><path d="M290.118 614.007c.241-.083.468-.204.672-.37.795-.641 1.045-1.726 1.246-2.727 3.06-15.201 4.498-30.593 6.412-46.013 1.32-10.628 5.964-20.572 6.573-31.447-11.79-4.138-25.3-5.59-37.649-7.82-13.937-2.515-27.913-4.813-41.909-6.972-23.072-3.558-49.466-11.297-72.446-10.775-3.264 10.067-25.933 77.326-18.023 80.826 3.8 1.68 17.134-3.525 21.39-4.42a3102.18 3102.18 0 0 0 22.766-4.88c15.19-3.316 29.47-9.206 45.188-10.675 1.03-.096 2.088-.177 3.08.117 1.167.347 2.12 1.177 3.051 1.963 6.25 5.274 13.678 8.749 20.07 13.59a1398.28 1398.28 0 0 0 22.717 16.844c5.036 3.657 9.143 8.478 13.887 12.148.832.644 2.012.94 2.975.61" fill="#f6522b"/><path d="M305.742 537.921a934.725 934.725 0 0 1-79.598 31.185c-1.509.513-2.739-.23-3.348-1.314a2.874 2.874 0 0 1-1.075-.552l-69.274-55.35c-2.804-2.24.744-6.544 3.554-4.299l69.274 55.351c.166.132.306.273.428.417a934.724 934.724 0 0 0 78.038-30.644c3.287-1.465 5.27 3.75 2.001 5.206" fill="#c93411"/><path d="M178.814 619.603c-7.694.495-16.405-1.774-23.947-3.191-.978-.184-.729-1.603.247-1.513 7.654.704 16.632.916 23.898 3.493.596.212.406 1.172-.198 1.211m82.664 4.752c-9.023-.436-18.176-3.088-27.03-4.827-8.986-1.765-17.969-3.538-26.956-5.295-8.625-1.688-17.255-3.357-25.881-5.051-8.614-1.692-17.57-2.872-25.907-5.667-.54-.181-.216-.923.271-.892 9.072.571 18.142 2.971 27.05 4.71 8.987 1.754 17.97 3.536 26.956 5.29 8.627 1.684 17.255 3.364 25.882 5.046 8.58 1.675 17.701 2.655 25.958 5.563.683.24.267 1.152-.343 1.123m7.166-16.013c-17.353-3.328-34.656-6.92-51.971-10.442-17.27-3.512-34.856-6.366-51.907-10.832-1.195-.313-.952-2.11.314-1.926 17.438 2.523 34.739 6.746 52.005 10.235 17.322 3.5 34.659 6.932 51.94 10.626 1.485.317 1.125 2.628-.381 2.339m-23.815-20.372c-7.835-1.594-15.624-3.451-23.421-5.218-7.017-1.59-14.716-2.545-21.323-5.447-.605-.265-.254-1.04.313-1.024 7.47.214 15.179 2.754 22.457 4.366 7.452 1.65 14.934 3.222 22.348 5.036 1.43.35 1.103 2.588-.374 2.287" fill="#fff"/><path d="M589.337 315.022c-16.828-24.386-53.77-35.83-79.945-46.752-5.967-2.49-13.893-2.304-17.07-8.084-3.175-5.77-3.128-13.908-2.209-20.222 1.138-7.813 4.095-15.24 7.344-22.436-8.296.191-15.14 6.126-22.405 10.135-6.774 3.737-13.59 7.457-19.922 11.922-6.017 4.244-10.942 9.8-16.988 13.958-2.717 1.868-7.005.611-10.848.198-9.347-1.004-18.702-1.934-28.07-2.695-18.404-1.493-36.882-2.357-55.346-1.832-37.29 1.061-74.232 8.338-107.915 24.753-27.709 13.505-62.417 42.794-71.62 73.13-2.13 7.018-2.962 14.355-3.687 21.662-7.332 73.996 50.95 141.648 119.138 162.477 27.777 8.485 57.157 12.56 86.158 13.256 7.207.174 14.25.505 21.188.815 67.224 3.007 129.041-9.283 184.135-50.06 25.043-18.537 43.217-46.969 47.743-77.965 4.716-32.292-11.364-75.717-29.68-102.26" fill="#009aa3"/><path d="M602.337 325.022c-16.828-24.386-53.77-35.83-79.945-46.752-8.783-3.665-22.824-4.974-27.253-14.062-6.088-12.49-5.339-33.44 2.556-45.208-24.714 6.306-34.85 25.916-47.226 45.862-69.468-7.814-136.308-12.668-201.506 19.105-27.709 13.505-62.417 42.794-71.62 73.13-2.13 7.018-2.962 14.355-3.687 21.662-7.332 73.996 50.95 141.648 119.138 162.477 27.777 8.485 57.157 12.56 86.158 13.256 7.207.174 14.25.505 21.188.815 67.224 3.007 129.041-9.283 184.135-50.06 25.043-18.537 43.217-46.969 47.743-77.965 4.716-32.292-11.364-75.717-29.68-102.26" fill="#00bac4"/></g><text transform="matrix(1.25 0 0 1.25 0 1000)" style="-inkscape-font-specification:Amatic-Bold" x="228.596" y="-377.802" font-weight="700" font-size="116.363" font-family="Amatic" fill="#fff"><tspan x="228.59599 265.48309 302.37021 344.26089 368.81351 406.04971 442.93683 470.86395" y="-377.802" style="-inkscape-font-specification:'Raleway Bold'" font-size="60" font-family="Raleway">CONTACT ME</tspan></text><g clip-path="url(#b)" transform="matrix(1.25 0 0 -1.25 0 1000)"><path d="M186.158 212.493l-.845 1.67" fill="#faffea"/><path d="M264.061 180.6c6.502-51.006-57.02-100.305-106.474-80.884-36.352 14.276-55.378 56.807-43.463 93.62 13.396 41.39 65.738 60.985 104.963 44.625 24.012-10.016 41.632-31.145 44.974-57.36" fill="#009aa3"/><path d="M267.061 186.6c6.502-51.006-57.02-100.305-106.474-80.884-36.352 14.276-55.378 56.807-43.463 93.62 13.396 41.39 65.738 60.985 104.963 44.625 24.012-10.016 41.632-31.145 44.974-57.36" fill="#00bac4"/><path d="M249.059 156.493c-17.085-34.418-72.751-61.85-104.874-29.455-17.988 18.14-23.166 47.054-15.92 71.133 1.85 6.148 4.487 12.146 8.693 16.863 4.753 5.333 11.202 8.713 17.539 11.928 12.54 6.362 25.45 12.576 39.44 14.493 13.99 1.917 29.442-1.058 40.03-11.078 6.21-5.875 10.323-13.703 13.487-21.685 6.666-16.813 9.438-36.42 1.605-52.2" fill="#ffc900"/><path d="M162.003 222.744c-.716.446-1.83.038-1.8-.912.095-3.235 2.467-6.85 4.003-9.632.551-.998 1.487-1.392 2.54-1.294.718.066 1.07.456 1.467 1.012.44.615.482 1.678.082 2.35-1.598 2.692-3.608 6.804-6.292 8.476m48.786-84.461c-.905 1.68-1.631 3.908-3.578 4.437-.761.206-1.644-.11-1.865-.944-.555-2.1 1.004-3.895 2.097-5.643 1.122-1.794 2.28-3.831 3.98-5.095.94-.696 1.948.276 1.834 1.264-.242 2.084-1.483 4.152-2.468 5.98m-60.758 19.43c-2.34.276-4.23-1.565-6.107-2.754-2.093-1.326-4.395-2.587-6.049-4.475-.717-.82-.172-2.484 1.095-2.163 2.578.653 4.836 2.177 7.095 3.53 1.943 1.164 4.235 1.963 5.075 4.21.29.772-.372 1.565-1.109 1.652m83.589 46.558c-2.91-.258-6.996-3.195-7.627-6.206-.196-.935.644-1.734 1.529-1.351 1.282.555 2.27 1.569 3.443 2.315 1.222.777 2.61 1.186 3.825 1.93 1.674 1.027.768 3.485-1.17 3.313m-31.154-17.988c-3.492-.978-6.517-3.328-9.634-5.149a234.626 234.626 0 0 1-4.265-2.533c-.9.986-2.136 1.654-3.39 1.78-.052.007-.105.006-.158.012-.085.005-.17.015-.254.015a5.85 5.85 0 0 1-1.603-.105c-1.468 3.186-3.22 6.254-4.861 9.358-2.223 4.204-3.921 9.46-7.88 12.196-.718.497-1.904.011-1.86-.94.233-4.837 3.673-8.974 6.066-13.115 1.813-3.137 3.53-6.37 5.523-9.403-2.912-3.913 1.623-10.935 6.708-8.402 1.903.95 3.15 3.097 3.072 5.278 1.79.92 3.552 1.895 5.323 2.86 2.945 1.607 6.258 2.867 8.715 5.18 1.128 1.063.133 3.426-1.502 2.968m-63.048-9.893c-.848.845-1.984.68-3.055.558-1.148-.131-2.525-.15-3.526-.76-.657-.4-.623-1.416.154-1.711 1.1-.42 2.389-.22 3.525-.151 1.09.067 2.344.046 2.999 1.053.186.284.158.757-.097 1.01m3.434 21.231a7.725 7.725 0 0 1-3.203 1.232c-.692.107-.998-.95-.4-1.307.859-.513 1.702-1.107 2.435-1.8.665-.628 1.314-1.484 2.293-1.346.26.036.464.25.545.495.382 1.15-.826 2.158-1.67 2.726m19.704-58.602c-.949-.724-1.244-2.276-1.56-3.395-.353-1.254-.708-2.529-.757-3.85-.036-.946 1.214-1.385 1.708-.599.69 1.096 1.107 2.35 1.514 3.585.364 1.105.982 2.538.616 3.726-.222.72-.945.973-1.52.533m23.215-4.351c-.608-1.372-.477-2.856-.371-4.352.099-1.392.15-2.847.83-4.108.407-.754 1.329-.589 1.632.1.576 1.307.489 2.907.44 4.331-.05 1.445-.09 2.832-.795 4.135-.435.802-1.411.627-1.736-.106m45.748 23.416c-.984.39-2.07.444-3.095.364-.939-.074-1-1.682-.078-1.902.98-.232 1.724-.7 2.575-1.235.795-.5 2.25-1.097 2.631.176.366 1.224-1.082 2.22-2.033 2.598m10.7 22.901c-1.18-.045-2.281-.407-3.396-.76-.947-.3-2.032-.596-2.365-1.64-.097-.302-.026-.71.21-.944.793-.782 1.804-.615 2.809-.49 1.143.14 2.355.314 3.406.78 1.35.598.91 3.114-.664 3.054m-49.373 49.693c-.913-1.503-1.09-4.145.26-5.543.634-.657 2.086-.4 2 .693-.057.739-.305 1.432-.427 2.164-.115.687-.077 1.368-.037 2.056.057.992-1.293 1.459-1.796.63m25.165-8.929c-1.09-.474-1.832-1.49-2.577-2.395-.824-1-1.613-2.032-2.416-3.05-.743-.943.782-2.242 1.62-1.415 1.599 1.574 4.11 3.343 4.82 5.58.285.891-.67 1.618-1.447 1.28" fill="#f6522b"/><path d="M268.991 209.695c-1.082 5.246-1.113 11.565 1.445 16.406 3.133 5.93 10.42 6.786 14.568 1.338 8.787-11.54-2.607-20.925-13.534-26.007-1.053 2.724-1.906 5.487-2.479 8.263m83.38 409.536c-13.035 3.154-26.802 9.684-33.065 22.252-5.776 11.59-2.65 26.29 6.143 35.51 9.386 9.844 23.934 11.053 35.71 4.866 13.234-6.953 18.826-21.417 15.32-35.73-2.928-11.952-9.972-20.943-19.085-27.96-1.7.313-3.378.664-5.024 1.062m145.266-466.427c-57.975-19.076-124.298-34.524-180.4-1.576-11.228 6.594-21.475 14.873-29.935 24.795-5.309 6.225-10.505 13.612-14.148 21.453 4.583 2.01 8.795 4.653 12.22 8.111 7.02 7.086 8.894 18.824.992 26.146-6.816 6.316-16.528 2.916-19.927-5.09-3.7-8.715-1.695-18.19 1.705-26.64-2.079-.817-4.059-1.464-5.784-1.918-29.888-7.865-61.494 3.813-86.93 19.22-23.732 14.374-45.11 32.978-62.712 54.417-35.709 43.494-54.24 100.073-43.98 156.117 5 27.305 16.553 53.61 34.803 74.674 19.17 22.127 44.497 37.884 71.158 49.447 29.74 12.898 61.315 20.658 92.587 28.817 16.284 4.25 32.553 8.614 48.544 13.878 13.545 4.458 27.376 9.29 39.346 17.205a59.412 59.412 0 0 1 2.817 1.998c14.404-2.417 29.66-1.312 43.003 2.78 21.947 6.73 39.231 23.743 40.121 47.611 1.034 27.747-17.202 52.486-26.127 77.656-6.695 18.88-7.215 38.626-3.104 57.646h-4.157c-.426-2.033-.81-4.089-1.142-6.172-2.213-13.856-2.016-28.077 1.325-41.74 3.414-13.96 9.867-26.982 15.82-39.984 11.376-24.849 22.934-56.422-.539-78.344-15.683-14.646-39.65-18.68-60.87-15.913 16.186 14.495 27.245 38.85 12.493 58.068-13.245 17.254-40.31 19.35-54.225 1.91-6.383-7.999-9.39-18.709-7.683-28.84 1.906-11.306 10.042-20.293 19.727-25.865 6.177-3.554 13.012-6.122 20.148-7.777-14.954-9.828-34.014-15.369-49.812-20.144-60.202-18.2-125.948-27.257-177.357-66.334-44.448-33.786-66.605-87.85-63.39-143.157 3.203-55.13 32.047-105.635 72.425-142.298 20.904-18.98 45.185-35.675 72.048-44.874 13.62-4.664 28.182-7.305 42.603-6.132 6.617.538 13.844 1.785 20.53 4.207 5.008-10.855 12.087-20.715 20.536-29.157 18.04-18.025 41.972-29.956 66.778-35.345 30.782-6.688 62.938-3.273 93.23 4.241 16.254 4.033 32.064 9.39 47.662 15.456.88.343.534 1.754-.399 1.447" fill="#f6522b"/><path d="M637.362 130.872c-22.68-13.57-48.46-22.24-74.12-23.71-29.22-1.68-58.3 5.98-82.5 26.37-.65.55-1.29 1.1-1.93 1.67a56.57 56.57 0 0 0-3.34 3.23c-2.84 3-5.2 6.37-6.31 10.31-1.95 6.91.38 14.47 4.59 20.28 4.2 5.81 10.1 10.15 16.03 14.18 9.73 6.59 20.2 12.74 31.83 14.44 10.15 1.48 21.4-1.12 28.51-8.26 1.04-1.04 1.99-2.18 2.83-3.42.11-.15.21-.31.3-.47 1.92-2.92 3.26-6.21 5.24-9.1 5.4-7.85 15.24-11.85 24.77-11.95 9.53-.09 18.79 3.26 27.24 7.65 20.34 10.57 37.07 27.22 50.3 45.94 5.98 8.46 11.46 19.49 6.76 28.73-2.48 4.89-7.23 7.97-11.66 11.33-.96.73-1.91 1.47-2.82 2.25-.54.46-1.05.93-1.54 1.42-16.82 16.68-6.06 47.97 6.26 63.66 8.93 11.37 25.82 30.36 42.45 26.57 2.1-.48 4-1.58 5.79-2.78 5.45-3.65 9.72-8.21 13.26-13.29 1.06-1.5 2.04-3.05 2.98-4.63 5.37-9.1 9.08-19.41 13.39-29.09 29.48-66.14-47.49-140.93-98.31-171.33" fill="#f6522b"/><path d="M645.971 146.54c-22.68-13.566-48.456-22.238-74.12-23.709-29.22-1.675-58.294 5.983-82.493 26.377-4.95 4.172-9.828 8.981-11.583 15.21-.823 2.92-.874 5.958-.35 8.932a38.69 38.69 0 0 1-3.676-4.328c-4.204-5.81-6.533-13.374-4.588-20.276 1.756-6.229 6.634-11.038 11.584-15.21 24.2-20.394 53.274-28.052 82.492-26.377 25.665 1.471 51.441 10.143 74.122 23.71 32.094 19.195 74.6 56.093 94.16 97.334-21.709-34.769-57.583-64.936-85.548-81.663m7.111 113.799c5.068-4.344 11.46-7.626 14.482-13.578 2.377-4.678 2.14-9.815.559-14.845.43.594.867 1.185 1.29 1.784 5.983 8.462 11.456 19.493 6.763 28.734-3.023 5.951-9.414 9.233-14.483 13.577-13.484 11.559-11.818 31.393-5.18 47.702-12.105-16.649-21.764-47.66-3.431-63.374" fill="#c93411"/><path d="M722.282 331.292a87.162 87.162 0 0 1-15.81-5.22c-9.85-4.32-19.03-10.48-26.61-18.15-7.96-8.06-14.23-17.67-18.5-28.15-2.93-7.18-4.32-14.35-5.46-21.68-.96.73-1.91 1.47-2.82 2.25-.54.46-1.05.93-1.54 1.42 2.3 18.55 13.05 37.46 25.34 49.75 8 8 17.44 14.46 27.82 19 4.13 1.81 9.29 3.91 14.6 5.41 1.06-1.5 2.04-3.05 2.98-4.63m-169.03-145.8c-2.99-.69-5.96-1.42-8.91-2.23-10.18-2.78-20.22-6.32-29.57-11.25-8.9-4.71-17.2-10.78-24.02-18.2-5.27-5.75-8.71-11.98-11.94-18.61a56.57 56.57 0 0 0-3.34 3.23c5.97 15.15 20.97 27.96 33.97 35.58 10.04 5.88 21.03 9.98 32.2 13.13 2.81.8 5.64 1.54 8.48 2.24 1.04-1.04 1.99-2.18 2.83-3.42.11-.15.21-.31.3-.47" fill="#c93411"/><path d="M726.6 282.965c-.88 6.078-9.86 4.95-9.444-1.148 1.023-14.933-.62-28.592-4.819-42.956-2.015-6.894-4.132-13.396-7.689-19.67-1.84-3.247-3.734-6.476-5.984-9.456-1.828-2.42-3.766-4.129-4.326-7.149-.115-.625.513-.95 1.032-.816 5.667 1.465 10.833 9.964 13.978 14.558 4.342 6.343 8.894 13.234 11.757 20.382 5.701 14.233 7.69 31.08 5.494 46.255m-1.029 18.929c-.234.912-.729 1.834-1.508 2.407l-1 .61a4.539 4.539 0 0 1-2.374.353l-1.205.008c-1.198.007-2.367-.877-3.12-1.736-.99-1.127-1.219-2.73-.858-4.133.706-2.749 3.64-4.25 6.311-3.23.365.14.731.28 1.096.418 2.104.804 3.204 3.178 2.658 5.303m-110.91-131.28c-5.576-1.526-10.766-4.968-16.111-7.209-5.844-2.45-11.905-4.494-18.193-5.425-12.107-1.791-23.797.878-33.223 8.802-1.365 1.148-3.49-.8-2.29-2.2 7.938-9.255 20.542-12.387 32.344-11.581 6.916.472 13.758 2.464 20.196 4.951 6.332 2.445 13.759 5.153 19.1 9.397 1.764 1.402.18 3.813-1.823 3.265m20.195 10.992c-.183.56-.782.996-1.354 1.07-2.068.266-3.178-1.622-4.324-3.068-1.157-1.46-2.467-3.054-2.895-4.893-.28-1.2 1.143-2.229 2.218-1.752 1.708.758 3.028 2.395 4.227 3.792 1.242 1.445 2.792 2.82 2.128 4.85" fill="#fff"/><path d="M648.086 564.964l-17.027-24.508c-.01 4.108-2.325 7.808-4.514 11.285a445.53 445.53 0 0 0-31.33 59.246c9.81-6.797 17.786-15.853 26.33-24.185a231.296 231.296 0 0 1 26.255-22.05l-2.948 1.332" fill="#00bac4"/><path d="M540.952 666.077c19.785-37.066 34.271-75.43 59.463-109.058 2.302-2.662 34.852 7.266 38.13 7.74 13.97 2.024 34.408 7.006 48.272 8.13-28.139 17.234-61.347 33.924-88.357 52.863l-29.68 20.813c-6.702 4.698-24.062 12.458-27.828 19.512" fill="#ffc900"/><path d="M545.813 660.659l83.955-85.201c2.514-2.551 5.47-4.36 8.12-6.684 1.594-1.4 3.185-4.248 5.116-5.016.789-.313 1.675-.203 2.516-.085 3.994.562 6.225 2.5 10.197 3.205-2.392-.424-8.165 4.686-10.463 6.245-5.15 3.493-9.851 8.026-14.641 11.999a1611.034 1611.034 0 0 0-84.799 75.537" fill="#00bac4"/><path d="M567.987 467.762c-10.086 1.623-20.556 1.017-30.74 1.014l-32.999-.008-64.997-.015c-42.998-.011-85.996.063-128.994-.033-24.402-.055-48.667-.131-72.996-2.147-1.932-.16-1.936-2.848 0-3.008 43.152-3.576 86.718-2.152 129.993-2.162l128.994-.032 35.998-.01c11.806-.002 24.051-.867 35.741 1.015 2.666.429 2.668 4.957 0 5.386m-6.311-128.624c-9.737 1.589-19.534 1.499-29.383 1.752-10.316.265-20.63.344-30.95.373l-61.898.171c-41.265.114-82.531.009-123.796-.001l-33.944-.009c-11.343-.003-23.484 1.029-34.624-1.382-2.44-.528-2.442-4.406 0-4.934 9.598-2.078 19.862-1.345 29.632-1.381 10.316-.038 20.633-.005 30.949-.008l61.898-.016c41.266-.01 82.53.047 123.797.162 11.315.031 22.63.023 33.944.267 11.468.247 23.04.029 34.375 1.88 1.547.252 1.548 2.873 0 3.126" fill="#befcff"/><path d="M711.17 364.558c-1.511.583-2.431-1.79-1.084-2.57 12.344-7.155 22.845-16.041 30.423-28.295 7.52-12.161 10.955-25.473 12.171-39.618.207-2.416 3.587-2.436 3.773 0 2.202 28.82-18.445 60.124-45.283 70.483M566.316 210.691c-4.396 3.86-12.11 4.198-17.732 4.889-7.225.887-14.638.991-21.884.284-13.59-1.327-27.663-5.029-39.168-12.595-1-.657-.381-2.555.867-2.056 12.463 4.975 24.818 9.085 38.3 10.057 6.183.445 12.374.386 18.534-.322a101.129 101.129 0 0 0 10.962-1.867c2.965-.678 5.78-1.876 8.837-1.491 1.399.177 2.6 1.946 1.284 3.101m70.905-94.664c-4.497.193-9.459-4.132-13.432-6.073a136.267 136.267 0 0 0-16.474-6.741c-10.987-3.688-22.42-6.056-33.964-7.085-23.383-2.084-45.335 2.22-67.537 9.176-1.208.379-1.999-1.456-.867-2.056 20.674-10.962 46.131-14.033 69.208-12.235a147.958 147.958 0 0 1 34.62 6.908 147.504 147.504 0 0 1 15.655 6.164c4.367 2.01 12.298 4.502 14.44 9.068.621 1.322-.12 2.808-1.649 2.874M114.86 236.5c-9.118-8.023-15.826-18.815-19.7-30.275-3.663-10.836-5.99-24.686-1.933-35.73.352-.956 1.786-.84 1.819.247.35 11.643-.077 22.447 3.759 33.697 3.849 11.288 10.473 20.874 19.022 29.094 1.963 1.889-.955 4.737-2.967 2.967m146.401-101.901c-2.884-3.476-4.569-7.897-7.146-11.632-2.939-4.26-6.387-8.156-10.219-11.632-7.906-7.171-17.008-11.623-26.787-15.63-1.57-.643-.985-2.78.698-2.531 10.44 1.544 20.307 7.165 28.263 13.916 3.886 3.297 7.386 7.027 10.473 11.079 3.14 4.12 7.126 9.337 7.891 14.583.238 1.634-1.809 3.49-3.173 1.847m19.329-11.421c-3.397-1.881-5.72-5.535-8.453-8.232a81.684 81.684 0 0 0-10.41-8.704c-1.752-1.232-.131-4.121 1.704-2.914 3.869 2.543 7.558 5.352 10.9 8.561 2.91 2.792 6.697 6.145 7.654 10.217.19.808-.656 1.481-1.394 1.072m-92.363 561.743c-.624 3.071-1.313 6.123-2.15 9.143-.47 1.692-3.392 1.435-3.177-.43.332-2.889.789-5.744 1.3-8.606.44-2.458.476-5.468 2.46-7.188.505-.437 1.387-.449 1.73.223 1.122 2.19.309 4.534-.163 6.858m-32.653-17.679c-.443.936-.772 1.374-1.654 1.995-.79.557-1.633 1.023-2.378 1.647-1.498 1.255-2.69 2.823-3.665 4.507-.85 1.472-3.369.502-2.806-1.183a14.903 14.903 0 0 1 3.774-6.021c.796-.775 1.704-1.543 2.68-2.09 1.24-.694 2.135-.833 3.433-.37.665.237.915.883.616 1.515m-22.368-25.087c-2.338 2.594-5.66 3.858-8.776 5.303-3.12 1.447-6.286 3.013-9.581 4.01-1.148.347-1.634-1.193-.768-1.821 3.083-2.233 6.589-3.94 9.957-5.7 2.796-1.461 5.395-2.96 8.57-3.232.78-.067 1.047.942.598 1.44m-19.817-39.764c-1.623 1.574-3.956 1.43-6.113 1.683-2.851.337-5.741.766-8.615.748-1.317-.008-1.564-1.904-.31-2.279 2.758-.822 5.655-1.22 8.488-1.696 2.16-.363 4.334-1.135 6.342-.076.585.31.67 1.173.209 1.62m-3.037-31.545c-2.842 1.234-6.676.6-9.692.41-2.05-.129-2.053-3.058 0-3.188 3.016-.19 6.85-.824 9.692.41.898.39.898 1.978 0 2.368M237.667 691.94c-.194.61-.946 1.005-1.532.622-1.962-1.28-2.449-3.79-3.187-5.918-.992-2.859-1.91-5.674-2.54-8.636-.293-1.373 1.666-2.379 2.376-1.003 1.293 2.505 2.302 5.04 3.29 7.68.836 2.234 2.35 4.868 1.593 7.254m49.331-17.056c-2.078.625-4.39-.568-6.169-1.581-2.029-1.157-3.777-2.752-5.261-4.546-1.247-1.506.762-3.631 2.187-2.187 1.451 1.469 3.071 2.649 4.885 3.636 1.6.87 3.607 1.26 4.917 2.562.688.684.345 1.843-.559 2.115m14.536-31.607c-1.704-1.347-3.093-2.686-5.245-3.296-1.514-.43-1.285-2.953.384-2.831 2.907.212 6.172 1.89 6.95 4.912.333 1.3-1.157 1.952-2.089 1.215" fill="#f6522b"/><path d="M431.728 239.822c-11.095.116-22.467-2.206-33.573-2.888a472.192 472.192 0 0 0-34.689-.85c-22.78.277-45.475 2.323-68.123 4.648-1.827.187-2.213-2.807-.433-3.2 22.5-4.974 45.542-7.032 68.556-7.38a454.025 454.025 0 0 1 34.69.805c11.15.685 23.465.75 34.257 3.801 2.8.791 2.242 5.033-.685 5.064M573.645 538.67c-6.373 4.857-15.865 7.43-23.323 10.223a349.577 349.577 0 0 1-25.43 8.426c-17.053 4.933-34.469 8.554-52.064 10.894-17.71 2.355-35.597 3.417-53.463 3.027-17.232-.376-36.015-1.18-52.625-6.149-.81-.243-.693-1.56.206-1.52 17.218.787 34.234 3.464 51.526 3.772 17.566.313 35.16-.612 52.585-2.86a351.69 351.69 0 0 0 51.92-10.75 348.89 348.89 0 0 0 24.612-8.055 343.623 343.623 0 0 0 11.652-4.54c4.295-1.766 8.662-4.304 13.23-5.253 1.77-.368 2.524 1.755 1.174 2.784M690.39 437.084c-4.646-.976-12.078.313-12.588 6.277-.49 5.72 5.51 9.48 10.618 8.226 4.77-1.17 8.116-5.276 9.29-9.903.075-.298.12-.594.18-.892-2.182-1.783-4.724-3.125-7.5-3.708m.982 56.497c-8.2 7.308-17.55 13.203-25.672 20.603-3.836 3.495-7.416 7.33-10.341 11.628-2.99 4.392-4.672 9.205-6.792 14.025-.352.802-1.62.371-1.601-.433.333-14.703 15.017-26.957 25.537-35.22 12.947-10.17 28.404-20.547 32.91-37.417 2.103-7.867.896-16.206-4.188-22.577-1.25 4.232-4.093 7.854-9.305 10.195-5.56 2.498-12.103 1.36-15.682-3.81-3.203-4.627-3.014-10.784 1.5-14.482 6.627-5.428 14.347-3.858 20.546.608-.09-7.723-4.543-15.004-8.238-21.592-1.218-2.172 2.026-4.06 3.332-1.948 4.313 6.975 9.142 17.621 8.589 26.701 3.302 3.34 5.845 7.428 7.035 11.357 4.897 16.182-6.128 32.113-17.63 42.362" fill="#00bac4"/></g></svg>