<svg xmlns="http://www.w3.org/2000/svg" viewBox="2606 621 100 100"><defs><style>.a{fill:#404e5c;}</style></defs><path class="a" d="M97.322,61.472C95.5,50.3,88.037,42.154,78.851,42.154H35.927c-9.192,0-16.65,8.141-18.476,19.318A15.83,15.83,0,0,0,7.387,76.643a15.86,15.86,0,0,0,5.977,12.8V100H29.27V93.58H85.5V100H101.4V89.436a15.84,15.84,0,0,0,5.982-12.794A15.829,15.829,0,0,0,97.322,61.472ZM35.927,46.1H78.851c6.042,0,11.338,5.917,13.307,13.933a29.615,29.615,0,0,0-3.112-.282c0-.016.007-.029.007-.046,0-4.651-4.581-8.433-10.208-8.433s-10.2,3.782-10.2,8.433H27.046a28.983,28.983,0,0,0-4.434.328C24.58,52.015,29.876,46.1,35.927,46.1Zm49.95,13.606H71.827c0-3.2,3.151-5.8,7.024-5.8S85.877,56.5,85.877,59.705ZM24.663,82.143c-3.676,0-6.663-2.457-6.663-5.5s2.987-5.509,6.663-5.509S31.33,73.6,31.33,76.643,28.343,82.143,24.663,82.143Zm52.079-.978H38.033a1.341,1.341,0,1,1,0-2.634H76.742a1.341,1.341,0,1,1,0,2.634Zm0-4.824H38.033a1.339,1.339,0,1,1,0-2.628H76.742a1.339,1.339,0,1,1,0,2.628Zm13.367,5.8c-3.682,0-6.667-2.457-6.667-5.5s2.985-5.509,6.667-5.509,6.666,2.468,6.666,5.509S93.787,82.143,90.11,82.143ZM40.364,0V32.416H74.41V0Zm5.359,8.661a1.841,1.841,0,0,1,2.246-.113l6.116,4.493,12.734-9.1a1.834,1.834,0,0,1,2.243.134,1.164,1.164,0,0,1-.16,1.854L54.056,16.537l-8.2-6.021A1.162,1.162,0,0,1,45.722,8.661Zm.93,19.373H45.19a1.473,1.473,0,0,1-1.59-1.316A1.471,1.471,0,0,1,45.19,25.4h1.463a1.474,1.474,0,0,1,1.594,1.316A1.474,1.474,0,0,1,46.653,28.034Zm0-5.259H45.19a1.473,1.473,0,0,1-1.59-1.316,1.47,1.47,0,0,1,1.59-1.314h1.463a1.473,1.473,0,0,1,1.594,1.314A1.477,1.477,0,0,1,46.653,22.775Zm22.509,5.259H51.184a1.477,1.477,0,0,1-1.594-1.316A1.472,1.472,0,0,1,51.184,25.4H69.162a1.473,1.473,0,0,1,1.591,1.316A1.476,1.476,0,0,1,69.162,28.034Zm0-5.259H51.184a1.477,1.477,0,0,1-1.594-1.316,1.471,1.471,0,0,1,1.594-1.314H69.162a1.472,1.472,0,0,1,1.591,1.314A1.479,1.479,0,0,1,69.162,22.775Z" transform="translate(2598.613 621)"/></svg>