<svg xmlns="http://www.w3.org/2000/svg" viewBox="2625 794 100 100"><defs><style>.a{fill:none;}.b{fill:#404e5c;}</style></defs><g transform="translate(2574 794)"><g transform="translate(51)"><ellipse class="a" cx="8.333" cy="6.818" rx="8.333" ry="6.818" transform="translate(11.111 63.636)"/><ellipse class="a" cx="8.333" cy="6.818" rx="8.333" ry="6.818" transform="translate(72.222 63.636)"/><path class="b" d="M139.333,31.818c-1.111-2.727-4.444-4.545-7.778-4.545H67.667V18.182L51,31.818l11.111,9.091,5.556,4.545V36.364h65l7.222,18.182H51V95.455C51,98.182,53.222,100,56.556,100h5.556c3.333,0,5.556-1.818,5.556-4.545V90.909h66.667v4.545c0,2.727,2.222,4.545,5.556,4.545h5.556c3.333,0,5.556-1.818,5.556-4.545V59.091ZM70.444,77.273c-4.444,0-8.333-3.182-8.333-6.818S66,63.636,70.444,63.636s8.333,3.182,8.333,6.818S74.889,77.273,70.444,77.273Zm61.111,0c-4.444,0-8.333-3.182-8.333-6.818s3.889-6.818,8.333-6.818,8.333,3.182,8.333,6.818S136,77.273,131.556,77.273ZM123.222,0V9.091H78.778v9.091h44.444v9.091l16.667-13.636Z" transform="translate(-51)"/></g></g></svg>