<?xml version="1.0" standalone="no"?>
<!DOCTYPE svg PUBLIC "-//W3C//DTD SVG 20010904//EN"
 "http://www.w3.org/TR/2001/REC-SVG-20010904/DTD/svg10.dtd">
<svg version="1.0" xmlns="http://www.w3.org/2000/svg"
 width="512.000000pt" height="512.000000pt" viewBox="0 0 512.000000 512.000000"
 preserveAspectRatio="xMidYMid meet">
<metadata>
Created by potrace 1.11, written by Peter Selinger 2001-2013
</metadata>
<g transform="translate(0.000000,512.000000) scale(0.100000,-0.100000)"
fill="#000000" stroke="none">
<path d="M2235 4359 c-575 -45 -1013 -176 -1210 -361 -109 -101 -227 -297
-336 -558 l-56 -135 -274 -6 c-151 -3 -275 -6 -276 -7 -1 -1 -18 -16 -37 -33
-21 -18 -38 -43 -41 -62 -8 -43 70 -424 94 -457 30 -43 77 -60 169 -60 l83 0
-46 -64 c-58 -82 -107 -189 -136 -296 -30 -112 -32 -308 -6 -422 37 -156 103
-286 201 -395 l56 -61 0 -259 c0 -146 5 -274 10 -295 14 -50 55 -97 105 -119
36 -17 69 -19 310 -19 241 0 274 2 310 19 91 42 115 97 115 261 l0 120 1290 0
1290 0 0 -120 c0 -164 24 -219 115 -261 36 -17 69 -19 310 -19 241 0 274 2
310 19 50 22 91 69 105 119 5 21 10 147 10 291 l0 253 47 52 c114 126 188 281
219 460 40 225 -24 495 -159 671 l-45 60 98 5 c107 5 142 21 168 73 22 46 94
408 87 443 -3 20 -20 45 -41 63 -19 17 -36 32 -37 33 -1 1 -125 4 -276 7
l-274 6 -57 135 c-156 373 -289 557 -471 657 -258 141 -607 225 -1093 263
-147 11 -483 11 -631 -1z m790 -403 c315 -39 537 -95 700 -177 93 -47 122 -73
178 -153 63 -92 237 -477 237 -524 0 -9 -362 -12 -1580 -12 -1257 0 -1580 3
-1580 13 0 47 174 429 237 523 56 80 85 106 178 153 198 99 474 160 895 195
105 9 622 -3 735 -18z m-1844 -1526 c253 -48 385 -321 269 -556 -134 -272
-534 -276 -678 -6 -81 152 -58 322 60 448 92 98 218 139 349 114z m2911 -1
c245 -52 378 -315 272 -539 -140 -297 -557 -297 -698 0 -28 58 -31 75 -31 160
0 86 3 101 32 162 78 164 252 253 425 217z"/>
</g>
</svg>
