<svg version="1" xmlns="http://www.w3.org/2000/svg" width="682.667" height="682.667" viewBox="0 0 512.000000 512.000000"><path d="M223.5 76.1c-57.5 4.5-101.3 17.6-121 36.1-10.9 10.1-22.7 29.7-33.6 55.8l-5.6 13.5-27.4.6c-15.1.3-27.5.6-27.6.7-.1.1-1.8 1.6-3.7 3.3-2.1 1.8-3.8 4.3-4.1 6.2-.8 4.3 7 42.4 9.4 45.7 3 4.3 7.7 6 16.9 6h8.3l-4.6 6.4c-5.8 8.2-10.7 18.9-13.6 29.6-3 11.2-3.2 30.8-.6 42.2 3.7 15.6 10.3 28.6 20.1 39.5l5.6 6.1v25.9c0 14.6.5 27.4 1 29.5 1.4 5 5.5 9.7 10.5 11.9 3.6 1.7 6.9 1.9 31 1.9s27.4-.2 31-1.9c9.1-4.2 11.5-9.7 11.5-26.1v-12h258v12c0 16.4 2.4 21.9 11.5 26.1 3.6 1.7 6.9 1.9 31 1.9s27.4-.2 31-1.9c5-2.2 9.1-6.9 10.5-11.9.5-2.1 1-14.7 1-29.1v-25.3l4.7-5.2c11.4-12.6 18.8-28.1 21.9-46 4-22.5-2.4-49.5-15.9-67.1l-4.5-6 9.8-.5c10.7-.5 14.2-2.1 16.8-7.3 2.2-4.6 9.4-40.8 8.7-44.3-.3-2-2-4.5-4.1-6.3-1.9-1.7-3.6-3.2-3.7-3.3-.1-.1-12.5-.4-27.6-.7l-27.4-.6L443 168c-15.6-37.3-28.9-55.7-47.1-65.7-25.8-14.1-60.7-22.5-109.3-26.3-14.7-1.1-48.3-1.1-63.1.1zm79 40.3c31.5 3.9 53.7 9.5 70 17.7 9.3 4.7 12.2 7.3 17.8 15.3 6.3 9.2 23.7 47.7 23.7 52.4 0 .9-36.2 1.2-158 1.2-125.7 0-158-.3-158-1.3 0-4.7 17.4-42.9 23.7-52.3 5.6-8 8.5-10.6 17.8-15.3 19.8-9.9 47.4-16 89.5-19.5 10.5-.9 62.2.3 73.5 1.8zM118.1 269c25.3 4.8 38.5 32.1 26.9 55.6-13.4 27.2-53.4 27.6-67.8.6-8.1-15.2-5.8-32.2 6-44.8 9.2-9.8 21.8-13.9 34.9-11.4zm291.1.1c24.5 5.2 37.8 31.5 27.2 53.9-14 29.7-55.7 29.7-69.8 0-2.8-5.8-3.1-7.5-3.1-16 0-8.6.3-10.1 3.2-16.2 7.8-16.4 25.2-25.3 42.5-21.7z"/></svg>