<svg xmlns="http://www.w3.org/2000/svg" viewBox="2625 794 100 100"><defs><style>.a{fill:none}.b{fill:#404e5c}</style></defs><g transform="translate(2625 794)"><ellipse class="a" cx="8.333" cy="6.818" rx="8.333" ry="6.818" transform="translate(11.111 63.636)"/><ellipse class="a" cx="8.333" cy="6.818" rx="8.333" ry="6.818" transform="translate(72.222 63.636)"/><path class="b" d="M88.333 31.818c-1.111-2.727-4.444-4.545-7.778-4.545H16.667v-9.091L0 31.818l11.111 9.091 5.556 4.545v-9.09h65l7.222 18.182H0v40.909C0 98.182 2.222 100 5.556 100h5.556c3.333 0 5.556-1.818 5.556-4.545v-4.546h66.667v4.545c0 2.727 2.222 4.545 5.556 4.545h5.556c3.333 0 5.556-1.818 5.556-4.545V59.091zM19.444 77.273c-4.444 0-8.333-3.182-8.333-6.818s3.889-6.819 8.333-6.819 8.333 3.182 8.333 6.818-3.888 6.819-8.333 6.819zm61.111 0c-4.444 0-8.333-3.182-8.333-6.818s3.889-6.818 8.333-6.818 8.333 3.182 8.333 6.818-3.888 6.818-8.332 6.818zM72.222 0v9.091H27.778v9.091h44.444v9.091l16.667-13.636z"/></g></svg>