<svg xmlns="http://www.w3.org/2000/svg" viewBox="2606 621 100 100"><defs><style>.a{fill:#404e5c}</style></defs><path class="a" d="M2695.935 682.472c-1.822-11.172-9.285-19.318-18.471-19.318h-42.924c-9.192 0-16.65 8.141-18.476 19.318A15.83 15.83 0 0 0 2606 697.643a15.86 15.86 0 0 0 5.977 12.8V721h15.906v-6.42h56.23V721h15.9v-10.564a15.84 15.84 0 0 0 5.982-12.794 15.829 15.829 0 0 0-10.06-15.17zM2634.54 667.1h42.924c6.042 0 11.338 5.917 13.307 13.933a29.615 29.615 0 0 0-3.112-.282c0-.016.007-.029.007-.046 0-4.651-4.581-8.433-10.208-8.433s-10.2 3.782-10.2 8.433h-41.599a28.983 28.983 0 0 0-4.434.328c1.968-8.018 7.264-13.933 13.315-13.933zm49.95 13.606h-14.05c0-3.2 3.151-5.8 7.024-5.8s7.026 2.594 7.026 5.799zm-61.214 22.437c-3.676 0-6.663-2.457-6.663-5.5s2.987-5.509 6.663-5.509 6.667 2.466 6.667 5.509-2.987 5.5-6.667 5.5zm52.079-.978h-38.709a1.341 1.341 0 1 1 0-2.634h38.709a1.341 1.341 0 1 1 0 2.634zm0-4.824h-38.709a1.339 1.339 0 1 1 0-2.628h38.709a1.339 1.339 0 1 1 0 2.628zm13.367 5.8c-3.682 0-6.667-2.457-6.667-5.5s2.985-5.509 6.667-5.509 6.666 2.468 6.666 5.509-2.988 5.502-6.665 5.502zM2638.977 621v32.416h34.046V621zm5.359 8.661a1.841 1.841 0 0 1 2.246-.113l6.116 4.493 12.734-9.1a1.834 1.834 0 0 1 2.243.134 1.164 1.164 0 0 1-.16 1.854l-14.846 10.608-8.2-6.021a1.162 1.162 0 0 1-.134-1.855zm.93 19.373h-1.463a1.473 1.473 0 0 1-1.59-1.316 1.471 1.471 0 0 1 1.59-1.318h1.463a1.474 1.474 0 0 1 1.594 1.316 1.474 1.474 0 0 1-1.594 1.318zm0-5.259h-1.463a1.473 1.473 0 0 1-1.59-1.316 1.47 1.47 0 0 1 1.59-1.314h1.463a1.473 1.473 0 0 1 1.594 1.314 1.477 1.477 0 0 1-1.594 1.316zm22.509 5.259h-17.978a1.477 1.477 0 0 1-1.594-1.316 1.472 1.472 0 0 1 1.594-1.318h17.978a1.473 1.473 0 0 1 1.591 1.316 1.476 1.476 0 0 1-1.591 1.318zm0-5.259h-17.978a1.477 1.477 0 0 1-1.594-1.316 1.471 1.471 0 0 1 1.594-1.314h17.978a1.472 1.472 0 0 1 1.591 1.314 1.479 1.479 0 0 1-1.591 1.316z"/></svg>